<?xml version="1.0" encoding="UTF-8"?>
<svg width="60px" height="60px" viewBox="0 0 60 60" version="1.1" xmlns="http://www.w3.org/2000/svg" xmlns:xlink="http://www.w3.org/1999/xlink">
    <!-- Generator: Sketch 51.2 (57519) - http://www.bohemiancoding.com/sketch -->
    <title>icn/herobox/insurance</title>
    <desc>Created with Sketch.</desc>
    <defs></defs>
    <g id="icn/herobox/insurance" stroke="none" stroke-width="1" fill="none" fill-rule="evenodd">
        <path d="M27,3.5 C27,2.94771525 27.4477153,2.5 28,2.5 C28.5522847,2.5 29,2.94771525 29,3.5 L29,5.5 C29,6.05228475 28.5522847,6.5 28,6.5 C27.4477153,6.5 27,6.05228475 27,5.5 L27,3.5 Z" id="Line" fill="#0987EB" fill-rule="nonzero"></path>
        <path d="M29,32 C29,32.5522847 28.5522847,33 28,33 C27.4477153,33 27,32.5522847 27,32 C27,29.790861 25.209139,28 23,28 C20.790861,28 19,29.790861 19,32 L19,58.8528793 C19,59.405164 18.5522847,59.8528793 18,59.8528793 C17.4477153,59.8528793 17,59.405164 17,58.8528793 L17,32 C17,28.6862915 19.6862915,26 23,26 C26.3137085,26 29,28.6862915 29,32 Z" id="Oval-9-Copy-6" fill="#0987EB" fill-rule="nonzero" transform="translate(23.000000, 42.926440) rotate(-180.000000) translate(-23.000000, -42.926440) "></path>
        <path d="M53.2078788,32.2019041 C51.7105248,29.2915455 48.6756525,27.4166667 45.297045,27.4166667 C41.9868612,27.4166667 39.0039417,29.2178868 37.4747836,32.0391579 C37.1154479,32.7021262 36.1640319,32.7022656 35.804502,32.0394025 C34.2741611,29.2179223 31.2911829,27.4166667 27.9821079,27.4166667 C24.671924,27.4166667 21.6890046,29.2178868 20.1598464,32.0391579 C19.8005107,32.7021262 18.8490947,32.7022656 18.4895649,32.0394025 C16.9592239,29.2179223 13.9762457,27.4166667 10.6671708,27.4166667 C7.31516242,27.4166667 4.29922565,29.2626374 2.78830775,32.1375923 C2.70175597,32.3022819 1.99835472,33.4833333 1.47368421,33.4833333 C0.949013705,33.4833333 0.523684222,33.0580038 0.523684222,32.5333333 C0.523684222,17.5724213 12.8283975,5.45000001 28,5.45000001 C43.1716025,5.45000001 55.4763158,17.5724213 55.4763158,32.5333333 C55.4763158,33.0580038 55.0509863,33.4833333 54.5263158,33.4833333 C54.0207898,33.4833333 53.294667,32.3705915 53.2078788,32.2019041 Z M53.3370333,29.0745023 C51.6251965,16.8050644 40.9363238,7.34999999 28,7.34999999 C15.0803811,7.34999999 4.40241256,16.7806613 2.66964318,29.0269853 C4.67154542,26.8350657 7.5514459,25.5166667 10.6671708,25.5166667 C14.1428132,25.5166667 17.3261779,27.1589591 19.3244354,29.8294668 C21.3219583,27.1589504 24.5055066,25.5166667 27.9821079,25.5166667 C31.4577504,25.5166667 34.6411151,27.1589591 36.6393725,29.8294668 C38.6368954,27.1589504 41.8204437,25.5166667 45.297045,25.5166667 C48.4363636,25.5166667 51.3347597,26.8547941 53.3370333,29.0745023 Z" id="Combined-Shape" fill="#0987EB" fill-rule="nonzero"></path>
        <path d="M53.3370333,29.0745023 C51.6251965,16.8050644 40.9363238,7.34999999 28,7.34999999 C15.0803811,7.34999999 4.40241256,16.7806613 2.66964318,29.0269853 C4.67154542,26.8350657 7.5514459,25.5166667 10.6671708,25.5166667 C14.1428132,25.5166667 17.3261779,27.1589591 19.3244354,29.8294668 C21.3219583,27.1589504 24.5055066,25.5166667 27.9821079,25.5166667 C31.4577504,25.5166667 34.6411151,27.1589591 36.6393725,29.8294668 C38.6368954,27.1589504 41.8204437,25.5166667 45.297045,25.5166667 C48.4363636,25.5166667 51.3347597,26.8547941 53.3370333,29.0745023 Z" id="Path" fill="#86D4FF"></path>
        <path d="M28,7.34999999 C15.0803811,7.34999999 4.40241256,16.7806613 2.66964318,29.0269853 C4.67154542,26.8350657 7.5514459,25.5166667 10.6671708,25.5166667 C14.1428132,25.5166667 17.3261779,27.1589591 19.3244354,29.8294668 C21.3219583,27.1589504 24.5055066,25.5166667 27.9821079,25.5166667 C31.4577504,25.5166667 34.6411151,27.1589591 36.6393725,29.8294668 C38.6368954,27.1589504 41.8204437,25.5166667 45.297045,25.5166667 C48.4363636,25.5166667 51.3347597,26.8547941 53.3370333,29.0745023 C51.6251965,16.8050644 40.9363238,7.34999999 28,7.34999999 Z" id="Path" fill="#86D4FF"></path>
        <path d="M36.9802253,29.3974872 C36.8631063,29.53829 36.7494389,29.6823175 36.6393725,29.8294668 C34.6411151,27.1589591 31.4577504,25.5166667 27.9821079,25.5166667 C24.5055066,25.5166667 21.3219583,27.1589504 19.3244354,29.8294668 C19.2246961,29.6961735 19.1220044,29.5654417 19.0164713,29.437348 C19.3260917,16.4955776 23.9255235,9.98912125 26.4195864,7.3972868 C26.9422981,7.36591512 27.4692576,7.34999999 28,7.34999999 C28.4724185,7.34999999 28.9418398,7.36260945 29.4079361,7.38750496 C31.8475264,10.112454 36.634716,17.0037518 36.9802253,29.3974872 Z" id="Combined-Shape" fill="#A9E1FF"></path>
        <path d="M36.9802253,29.3974872 C36.8631063,29.53829 36.7494389,29.6823175 36.6393725,29.8294668 C34.6411151,27.1589591 31.4577504,25.5166667 27.9821079,25.5166667 C24.5055066,25.5166667 21.3219583,27.1589504 19.3244354,29.8294668 C19.2246961,29.6961735 19.1220044,29.5654417 19.0164713,29.437348 C19.3260917,16.4955776 23.9255235,9.98912125 26.4195864,7.3972868 C26.9422981,7.36591512 27.4692576,7.34999999 28,7.34999999 C28.4724185,7.34999999 28.9418398,7.36260945 29.4079361,7.38750496 C31.8475264,10.112454 36.634716,17.0037518 36.9802253,29.3974872 Z" id="Combined-Shape" fill="#A9E1FF"></path>
        <path d="M19.0163942,29.4372544 C17.0075888,26.9990688 13.9692909,25.5166667 10.6671708,25.5166667 C7.5514459,25.5166667 4.67154542,26.8350657 2.66964318,29.0269853 C4.33122898,17.2837502 14.218158,8.12959027 26.4195686,7.39728787 C23.9255235,9.98912125 19.3260917,16.4955776 19.0164713,29.437348 L19.0163942,29.4372544 Z" id="Combined-Shape" fill="#D2EFFF"></path>
        <path d="M27.9487318,9.31744482 C18.1583211,9.31744482 9.46313684,14.4738464 4.76867676,22.1769667 C8.65930611,13.4483843 17.644563,7.3499999 27.9489539,7.3499999 C38.2544127,7.3499999 47.3809927,13.4496485 51.2709961,22.1796809 C44.9006348,13.6048568 37.1265467,9.31744482 27.9487318,9.31744482 Z" id="Combined-Shape" fill="#FFFFFF" opacity="0.400000006"></path>
        <circle id="Oval-18-Copy-2" fill="#0067CA" opacity="0.195826539" cx="48.5" cy="13.5" r="11.5"></circle>
        <path d="M48.5,21 C53.7467051,21 58,16.7467051 58,11.5 C58,6.25329488 53.7467051,2 48.5,2 C43.2532949,2 39,6.25329488 39,11.5 C39,16.7467051 43.2532949,21 48.5,21 Z M48.5,23 C42.1487254,23 37,17.8512746 37,11.5 C37,5.14872538 42.1487254,0 48.5,0 C54.8512746,0 60,5.14872538 60,11.5 C60,17.8512746 54.8512746,23 48.5,23 Z" id="Oval-18-Copy" fill="#0987EB" fill-rule="nonzero"></path>
        <path d="M48.5,21 C53.7467051,21 58,16.7467051 58,11.5 C58,6.25329488 53.7467051,2 48.5,2 C43.2532949,2 39,6.25329488 39,11.5 C39,16.7467051 43.2532949,21 48.5,21 Z" id="Path" fill="#FFFFFF"></path>
        <path d="M53.6370041,7.30792223 C54.0744572,6.88636905 54.7708194,6.89925851 55.1923726,7.33671163 C55.6139258,7.77416475 55.6010363,8.47052695 55.1635832,8.89208013 L46.9032692,16.8521596 L43.3330621,13.3797835 C42.89756,12.956215 42.8878859,12.2598007 43.3114544,11.8242986 C43.7350228,11.3887965 44.4314371,11.3791224 44.8669392,11.8026908 L46.9103382,13.7900965 L53.6370041,7.30792223 Z" id="Line-Copy" fill="#0987EB" fill-rule="nonzero"></path>
    </g>
</svg>