<?xml version="1.0" encoding="UTF-8"?>
<svg width="60px" height="60px" viewBox="0 0 60 60" version="1.1" xmlns="http://www.w3.org/2000/svg" xmlns:xlink="http://www.w3.org/1999/xlink">
    <!-- Generator: Sketch 51.2 (57519) - http://www.bohemiancoding.com/sketch -->
    <title>icn/herobox/vehicle-check</title>
    <desc>Created with Sketch.</desc>
    <defs></defs>
    <g id="icn/herobox/vehicle-check" stroke="none" stroke-width="1" fill="none" fill-rule="evenodd">
        <path d="M56.7358522,32.5809106 C57.5124254,33.7142399 58.0522622,35.0029353 58.3115602,36.3701158 L58.3694907,36.6755619 C58.788906,38.8869806 59,41.1328605 59,43.3837007 L59,50 C59,51.1045695 58.1045695,52 57,52 L57,54 C57,56.209139 55.209139,58 53,58 L48,58 C45.790861,58 44,56.209139 44,54 L44,52 L16,52 L16,54 C16,56.209139 14.209139,58 12,58 L7,58 C4.790861,58 3,56.209139 3,54 L3,52 C1.8954305,52 1,51.1045695 1,50 L1,43.3687821 C1,41.1278225 1.20924483,38.891758 1.6250099,36.6897046 L1.68385993,36.378012 C1.94878463,34.9748679 2.5091651,33.654179 3.31769037,32.4990136 L1.47620749,31.7625661 C0.516082607,31.3785921 0.006967065,30.3260328 0.301988296,29.3349534 L0.86823947,27.4327179 C1.12056292,26.5850753 1.8996488,26.0037973 2.78404966,26.0033269 L8.71421167,26.0001728 L11.4415068,19.6364842 C12.3869795,17.4303811 14.5562083,16 16.9563769,16 L43.0436231,16 C45.4437917,16 47.6130205,17.4303811 48.5584932,19.6364842 L51.2857294,26.0000353 L57.4742759,26.0033269 C58.3586768,26.0037973 59.1377627,26.5850753 59.3900861,27.4327179 L59.9563373,29.3349534 C60.2513585,30.3260328 59.742243,31.3785921 58.7821181,31.7625661 L56.7358522,32.5809106 Z M8.75504209,30 L6.2234017,32.2292063 C4.88579823,33.4070174 3.97979824,34.9977623 3.64913716,36.7490719 L3.59028713,37.0607645 C3.19762012,39.1404816 3,41.2523203 3,43.3687821 L3,50 L57,50 L57,43.3837007 C57,41.2579072 56.8006334,39.1367983 56.404519,37.0482363 L56.3465885,36.7427902 C56.0151742,34.9953674 55.1109014,33.4082106 53.7766712,32.232136 L51.244363,30 L8.75504209,30 Z M55.3652765,30.9750254 L58.0394633,29.9055621 L57.4732122,28.0033266 L52.1430678,28.0004916 L52.2295889,28.2023741 L55.0991636,30.7317981 C55.1894525,30.8113844 55.2781662,30.8924768 55.3652765,30.9750254 Z M4.70969532,30.9016984 C4.77287611,30.8430956 4.83687803,30.78525 4.9016906,30.7281801 L7.77055722,28.2020332 L7.85687326,28.0006291 L2.78511341,28.0033266 L2.21886224,29.9055621 L4.70969532,30.9016984 Z M5,52 L5,54 C5,55.1045695 5.8954305,56 7,56 L12,56 C13.1045695,56 14,55.1045695 14,54 L14,52 L5,52 Z M46,52 L46,54 C46,55.1045695 46.8954305,56 48,56 L53,56 C54.1045695,56 55,55.1045695 55,54 L55,52 L46,52 Z M46.7202032,20.4243228 C46.089888,18.9535874 44.6437355,18 43.0436231,18 L16.9563769,18 C15.3562645,18 13.910112,18.9535874 13.2797968,20.4243228 L10.033078,28 L49.966922,28 L46.7202032,20.4243228 Z" id="Combined-Shape" fill="#0987EB" fill-rule="nonzero"></path>
        <path d="M46.7202032,20.4243228 C46.089888,18.9535874 44.6437355,18 43.0436231,18 L16.9563769,18 C15.3562645,18 13.910112,18.9535874 13.2797968,20.4243228 L10.033078,28 L49.966922,28 L46.7202032,20.4243228 Z" id="Path" fill="#A9E1FF"></path>
        <path d="M46,52 L46,54 C46,55.1045695 46.8954305,56 48,56 L53,56 C54.1045695,56 55,55.1045695 55,54 L55,52 L46,52 Z" id="Path" fill="#D2EFFF"></path>
        <path d="M5,52 L5,54 C5,55.1045695 5.8954305,56 7,56 L12,56 C13.1045695,56 14,55.1045695 14,54 L14,52 L5,52 Z" id="Path" fill="#D2EFFF"></path>
        <path d="M4.70969532,30.9016984 C4.77287611,30.8430956 4.83687803,30.78525 4.9016906,30.7281801 L7.77055722,28.2020332 L7.85687326,28.0006291 L2.78511341,28.0033266 L2.21886224,29.9055621 L4.70969532,30.9016984 Z" id="Path" fill="#A9E1FF"></path>
        <path d="M55.3652765,30.9750254 L58.0394633,29.9055621 L57.4732122,28.0033266 L52.1430678,28.0004916 L52.2295889,28.2023741 L55.0991636,30.7317981 C55.1894525,30.8113844 55.2781662,30.8924768 55.3652765,30.9750254 Z" id="Path" fill="#A9E1FF"></path>
        <path d="M8.75504209,30 L6.2234017,32.2292063 C4.88579823,33.4070174 3.97979824,34.9977623 3.64913716,36.7490719 L3.59028713,37.0607645 C3.19762012,39.1404816 3,41.2523203 3,43.3687821 L3,50 L57,50 L57,43.3837007 C57,41.2579072 56.8006334,39.1367983 56.404519,37.0482363 L56.3465885,36.7427902 C56.0151742,34.9953674 55.1109014,33.4082106 53.7766712,32.232136 L51.244363,30 L8.75504209,30 Z" id="Path" fill="#D2EFFF"></path>
        <rect id="Rectangle-15-Copy-2" fill="#A9E1FF" x="3" y="49" width="54" height="1"></rect>
        <path d="M8.75559998,30 L51.3189697,30 C52.9995863,31.5184428 53.9019707,32.3356782 54.026123,32.4517059 C54.1502754,32.5677337 54.3177711,32.7504984 54.5286102,33 L5.46713257,33 C5.62597276,32.797748 5.79593533,32.614022 5.97702026,32.448822 C6.1581052,32.283622 7.08429844,31.467348 8.75559998,30 Z" id="Rectangle-15-Copy-3" fill="#E8F7FF"></path>
        <path d="M21,43 C20.4477153,43 20,42.5522847 20,42 C20,41.4477153 20.4477153,41 21,41 L39,41 C39.5522847,41 40,41.4477153 40,42 C40,42.5522847 39.5522847,43 39,43 L21,43 Z" id="Line-3" fill="#0987EB" fill-rule="nonzero"></path>
        <path d="M21,47 C20.4477153,47 20,46.5522847 20,46 C20,45.4477153 20.4477153,45 21,45 L39,45 C39.5522847,45 40,45.4477153 40,46 C40,46.5522847 39.5522847,47 39,47 L21,47 Z" id="Line-3-Copy" fill="#0987EB" fill-rule="nonzero"></path>
        <path d="M12.6139991,41 L8,41 C7.44771525,41 7,41.4477153 7,42 L7,44 C7,44.5522847 7.44771525,45 8,45 L14.1139991,45 L12.6139991,41 Z M8,39 L14,39 L17,47 L8,47 C6.34314575,47 5,45.6568542 5,44 L5,42 C5,40.3431458 6.34314575,39 8,39 Z" id="Rectangle-23" fill="#0987EB" fill-rule="nonzero"></path>
        <path d="M53.5,41 L48.8860009,41 C48.3337162,41 47.8860009,41.4477153 47.8860009,42 L47.8860009,44 C47.8860009,44.5522847 48.3337162,45 48.8860009,45 L55,45 L53.5,41 Z M16.1139991,45 L14.6139991,41 L10,41 C9.44771525,41 9,41.4477153 9,42 L9,44 C9,44.5522847 9.44771525,45 10,45 L16.1139991,45 Z M10,39 L16,39 L19,47 L10,47 C8.34314575,47 7,45.6568542 7,44 L7,42 C7,40.3431458 8.34314575,39 10,39 Z" id="Rectangle-23-Copy" fill="#0987EB" fill-rule="nonzero" transform="translate(31.000000, 43.000000) scale(-1, 1) translate(-31.000000, -43.000000) "></path>
        <path d="M12.6139991,41 L8,41 C7.44771525,41 7,41.4477153 7,42 L7,44 C7,44.5522847 7.44771525,45 8,45 L14.1139991,45 L12.6139991,41 Z" id="Path" fill="#FFFFFF"></path>
        <path d="M53,45 L51.5,41 L46.8860009,41 C46.3337162,41 45.8860009,41.4477153 45.8860009,42 L45.8860009,44 C45.8860009,44.5522847 46.3337162,45 46.8860009,45 L53,45 Z" id="Path" fill="#FFFFFF" transform="translate(49.443000, 43.000000) scale(-1, 1) translate(-49.443000, -43.000000) "></path>
        <rect id="Rectangle-Copy-17" fill="#7FD2FF" x="5" y="52" width="9" height="1"></rect>
        <rect id="Rectangle-Copy-18" fill="#7FD2FF" x="46" y="52" width="9" height="1"></rect>
        <circle id="Oval-18-Copy-2" fill="#0067CA" opacity="0.195826539" cx="48.5" cy="13.5" r="11.5"></circle>
        <path d="M48.5,21 C53.7467051,21 58,16.7467051 58,11.5 C58,6.25329488 53.7467051,2 48.5,2 C43.2532949,2 39,6.25329488 39,11.5 C39,16.7467051 43.2532949,21 48.5,21 Z M48.5,23 C42.1487254,23 37,17.8512746 37,11.5 C37,5.14872538 42.1487254,0 48.5,0 C54.8512746,0 60,5.14872538 60,11.5 C60,17.8512746 54.8512746,23 48.5,23 Z" id="Oval-18-Copy" fill="#0987EB" fill-rule="nonzero"></path>
        <path d="M48.5,21 C53.7467051,21 58,16.7467051 58,11.5 C58,6.25329488 53.7467051,2 48.5,2 C43.2532949,2 39,6.25329488 39,11.5 C39,16.7467051 43.2532949,21 48.5,21 Z" id="Path" fill="#FFFFFF"></path>
        <path d="M53.6370041,7.30792223 C54.0744572,6.88636905 54.7708194,6.89925851 55.1923726,7.33671163 C55.6139258,7.77416475 55.6010363,8.47052695 55.1635832,8.89208013 L46.9032692,16.8521596 L43.3330621,13.3797835 C42.89756,12.956215 42.8878859,12.2598007 43.3114544,11.8242986 C43.7350228,11.3887965 44.4314371,11.3791224 44.8669392,11.8026908 L46.9103382,13.7900965 L53.6370041,7.30792223 Z" id="Line-Copy" fill="#0987EB" fill-rule="nonzero"></path>
    </g>
</svg>